# xmcd CD database file
#
# Track frame offsets:
#	150
#	17385
#	43480
#	68275
#	85392
#	105935
#	130290
#	155400
#	173532
#	192870
#	214585
#	236925
#
# Disc length: 3396 seconds
#
# Revision: 2
# Processed by: cddbd v1.4PL0 Copyright (c) Steve Scherf et al.
# Submitted via: CDex 1.50
#
DISCID=940d420c
DTITLE=Kenny Wayne Shepherd - Trouble Is
DYEAR=1997
DGENRE=Blues
TTITLE0=Slow Ride
TTITLE1=True Lies
TTITLE2=Blue on Black
TTITLE3=Everything Is Broken
TTITLE4=I Don't Live Today
TTITLE5=(Long) Gone
TTITLE6=Somehow, Somewhere, Someway
TTITLE7=I Found Love (When I Found You)
TTITLE8=King's Highway
TTITLE9=Nothing to Do With Love
TTITLE10=Chase the Rainbow
TTITLE11=Trouble Is...
EXTD=YEAR: 1997
EXTT0=
EXTT1=
EXTT2=
EXTT3=
EXTT4=
EXTT5=
EXTT6=
EXTT7=
EXTT8=
EXTT9=
EXTT10=
EXTT11=
PLAYORDER=
